<svg viewBox="0 0 100 100" fill="none" xmlns="http://www.w3.org/2000/svg">
	<path d="M47.5 89C69.3152 89 87 71.5391 87 50C87 28.4609 69.3152 11 47.5 11C25.6848 11 8 28.4609 8 50C8 71.5391 25.6848 89 47.5 89Z" fill="#EDEEF2" />
	<path d="M79.6959 50.0714C79.6959 47.1185 80.6643 44.0796 79.9328 41.3567C79.176 38.5393 76.7889 36.3924 75.3552 33.9261C73.9004 31.4239 73.2117 28.2997 71.1715 26.269C69.1313 24.2383 65.9925 23.5528 63.4786 22.1048C61.0008 20.6777 58.8439 18.3017 56.0134 17.5485C53.2777 16.8203 50.2246 17.7842 47.258 17.7842C44.2914 17.7842 41.2382 16.8203 38.5026 17.5485C35.672 18.3017 33.5151 20.6777 31.0373 22.1048C28.5234 23.5528 25.3846 24.2383 23.3445 26.269C21.3043 28.2997 20.6155 31.4239 19.1608 33.9261C17.727 36.3924 15.34 38.5393 14.5832 41.3567C13.8516 44.0796 14.8201 47.1185 14.8201 50.0714C14.8201 53.0242 13.8516 56.0631 14.5832 58.7861C15.34 61.6035 17.727 63.7504 19.1608 66.2166C20.6155 68.7188 21.3043 71.8431 23.3445 73.8738C25.3846 75.9045 28.5234 76.59 31.0373 78.038C33.5151 79.4651 35.672 81.841 38.5026 82.5943C41.2382 83.3225 44.2914 82.3585 47.258 82.3585C50.2246 82.3585 53.2777 83.3225 56.0134 82.5943C58.8439 81.841 61.0008 79.4651 63.4786 78.038C65.9925 76.59 69.1313 75.9045 71.1715 73.8738C73.2117 71.8431 73.9004 68.7188 75.3552 66.2166C76.7889 63.7504 79.176 61.6035 79.9328 58.7861C80.6643 56.0631 79.6959 53.0234 79.6959 50.0714Z" fill="white" />
	<path d="M47.5999 57.4618C51.3165 57.4618 54.3294 54.4629 54.3294 50.7636C54.3294 47.0643 51.3165 44.0654 47.5999 44.0654C43.8833 44.0654 40.8704 47.0643 40.8704 50.7636C40.8704 54.4629 43.8833 57.4618 47.5999 57.4618Z" fill="#EDEEF2" />
	<path d="M69.1768 52.6613C72.8933 52.6613 75.9062 49.6624 75.9062 45.9631C75.9062 42.2638 72.8933 39.2649 69.1768 39.2649C65.4602 39.2649 62.4473 42.2638 62.4473 45.9631C62.4473 49.6624 65.4602 52.6613 69.1768 52.6613Z" fill="#EDEEF2" />
	<path d="M56.2401 37.7158C59.9567 37.7158 62.9696 34.7169 62.9696 31.0175C62.9696 27.3182 59.9567 24.3193 56.2401 24.3193C52.5235 24.3193 49.5107 27.3182 49.5107 31.0175C49.5107 34.7169 52.5235 37.7158 56.2401 37.7158Z" fill="#EDEEF2" />
	<path d="M34.3593 39.2533C38.0759 39.2533 41.0888 36.2544 41.0888 32.5551C41.0888 28.8558 38.0759 25.8569 34.3593 25.8569C30.6427 25.8569 27.6299 28.8558 27.6299 32.5551C27.6299 36.2544 30.6427 39.2533 34.3593 39.2533Z" fill="#EDEEF2" />
	<path d="M25.7315 60.2465C29.4481 60.2465 32.461 57.2476 32.461 53.5483C32.461 49.849 29.4481 46.8501 25.7315 46.8501C22.0149 46.8501 19.002 49.849 19.002 53.5483C19.002 57.2476 22.0149 60.2465 25.7315 60.2465Z" fill="#EDEEF2" />
	<path d="M38.8694 77.0229C42.586 77.0229 45.5989 74.024 45.5989 70.3247C45.5989 66.6254 42.586 63.6265 38.8694 63.6265C35.1528 63.6265 32.1399 66.6254 32.1399 70.3247C32.1399 74.024 35.1528 77.0229 38.8694 77.0229Z" fill="#EDEEF2" />
	<path d="M60.5198 72.737C64.2364 72.737 67.2493 69.7381 67.2493 66.0388C67.2493 62.3395 64.2364 59.3406 60.5198 59.3406C56.8032 59.3406 53.7903 62.3395 53.7903 66.0388C53.7903 69.7381 56.8032 72.737 60.5198 72.737Z" fill="#EDEEF2" />
	<path d="M81.7387 89.9998C73.9853 89.9998 71.4807 88.7015 71.4807 83.0132C71.4807 77.7086 73.1673 75.0158 73.2277 69.6126C73.305 62.7271 71.4807 60.5167 71.4807 57.1116C71.4807 53.1179 71.4807 48.9679 71.4807 41.3124C71.4807 35.1635 77.6172 30.2201 77.7827 22.5103C77.786 22.3389 77.6424 22.1959 77.4702 22.1934C76.9343 22.1842 76.894 22.1173 76.8923 21.9209C76.8772 19.9579 76.9167 17.7717 77.1418 17.5468C77.5567 17.1313 80.3184 17.0962 81.7404 17.0962C83.1624 17.0962 85.9241 17.1313 86.339 17.5468C86.5641 17.7717 86.6027 19.9579 86.5885 21.9209C86.5868 22.1173 86.5465 22.1842 86.0106 22.1934C85.8384 22.1968 85.6939 22.3389 85.6981 22.5103C85.8628 30.2201 92.0001 35.1635 92.0001 41.3124C92.0001 48.9679 92.0001 53.1179 92.0001 57.1116C92.0001 60.5175 90.1758 62.7271 90.2531 69.6126C90.3135 75.0166 92.0001 77.7086 92.0001 83.0132C91.9967 88.7015 89.4921 89.9998 81.7387 89.9998Z" fill="#EDEEF2" />
	<path d="M81.8419 42.5462C84.2626 42.5462 86.6219 42.471 88.7301 42.3121C89.0888 42.2854 89.392 42.5646 89.392 42.9224V54.5156C89.392 54.8174 89.1744 55.0765 88.8746 55.1217C86.7807 55.4385 84.3188 55.5865 81.8419 55.5865C77.8623 55.5865 73.8979 55.2136 71.4797 54.3576V41.9426C74.2397 42.3615 77.9774 42.5462 81.8419 42.5462Z" fill="white" />
</svg>
