<svg width="10" height="17" viewBox="0 0 10 17" fill="none" xmlns="http://www.w3.org/2000/svg">
<g clip-path="url(#clip0_1_4)">
<path d="M6.732 8.25L0.757 2.275C0.522549 2.04055 0.390835 1.72256 0.390835 1.391C0.390835 1.05944 0.522549 0.741451 0.757 0.506999C0.991451 0.272548 1.30944 0.140834 1.641 0.140834C1.97256 0.140834 2.29055 0.272548 2.525 0.506999L9.243 7.225C9.523 7.505 9.643 7.885 9.601 8.25C9.62239 8.43678 9.6013 8.62598 9.5393 8.80347C9.47731 8.98096 9.37602 9.14215 9.243 9.275L2.525 15.993C2.40891 16.1091 2.27109 16.2012 2.11942 16.264C1.96774 16.3268 1.80517 16.3592 1.641 16.3592C1.47683 16.3592 1.31426 16.3268 1.16258 16.264C1.01091 16.2012 0.873089 16.1091 0.757 15.993C0.640911 15.8769 0.548825 15.7391 0.485998 15.5874C0.423171 15.4357 0.390835 15.2732 0.390835 15.109C0.390835 14.9448 0.423171 14.7823 0.485998 14.6306C0.548825 14.4789 0.640911 14.3411 0.757 14.225L6.732 8.25Z" fill="white"/>
</g>
<defs>
<clipPath id="clip0_1_4">
<rect width="10" height="17" fill="white" transform="translate(10 17) rotate(-180)"/>
</clipPath>
</defs>
</svg>
